<svg xmlns="http://www.w3.org/2000/svg" xmlns:xlink="http://www.w3.org/1999/xlink" viewBox="0 0 64 81.25" version="1.1" x="30px" y="30px"><desc>Created with Sketch.</desc><g stroke="none" stroke-width="1" fill="white"  fill-rule="evenodd"><g transform="translate(-658.000000, -298.000000)" fill="white" fill-rule="nonzero"><path d="M709.831054,338.309435 C709.316176,338.109636 709.060755,337.530276 709.260554,337.015398 C709.460353,336.500521 710.039713,336.2451 710.55459,336.444899 C717.708984,339.221174 722,343.349563 722,348 C722,356.501436 707.610323,363 690,363 C672.389677,363 658,356.501436 658,348 C658,340.753554 668.4764,334.873546 682.866572,333.366895 C683.415854,333.309386 683.907757,333.708046 683.965266,334.257328 C684.022776,334.806611 683.624116,335.298513 683.074834,335.356023 C669.591153,336.767763 660,342.150916 660,348 C660,354.962537 673.368668,361 690,361 C706.631332,361 720,354.962537 720,348 C720,344.378349 716.301993,340.820495 709.831054,338.309435 Z M704.77738,345.69236 C704.289332,345.433851 704.103253,344.828646 704.361761,344.340598 C704.62027,343.852549 705.225475,343.66647 705.713524,343.924979 C707.796219,345.028137 709,346.39871 709,348 C709,352.16361 700.490829,355 690,355 C679.509171,355 671,352.16361 671,348 C671,346.052601 672.764551,344.451377 675.760476,343.24628 C676.272862,343.040175 676.855314,343.288465 677.061418,343.80085 C677.267523,344.313236 677.019234,344.895688 676.506848,345.101793 C674.1909,346.033372 673,347.114043 673,348 C673,350.463807 680.608578,353 690,353 C699.391422,353 707,350.463807 707,348 C707,347.310828 706.275397,346.485827 704.77738,345.69236 Z M695.069709,299.366823 C694.867118,298.853038 695.119391,298.2723 695.633177,298.069709 C696.146962,297.867118 696.7277,298.119391 696.930291,298.633177 C699.581176,305.356016 699.581176,312.599605 696.946443,320.322872 C695.492177,324.585802 692.431325,334.745115 691.879012,335.958582 C691.513884,336.760792 691.133349,337.335415 690.660005,337.751261 C690.516177,337.877619 690.357986,338.0037 690.180305,338.13513 C689.842464,338.38503 688.57549,339.219397 688.445223,339.309514 C686.748867,340.483042 686,341.488387 686,343 C686,344.008207 686.345429,344.45474 687.228015,344.727762 C688.090531,344.994576 689.055477,345.040714 691.643521,345.010356 C692.290086,345.002772 692.612389,345 693,345 C693.477048,345 694.037531,344.663143 694.723903,343.903209 C695.34063,343.220384 695.989243,342.285044 696.916992,340.784306 C697.187458,340.346796 698.230967,338.628887 698.154386,338.754413 C698.68105,337.891141 699.095284,337.228262 699.518405,336.579069 C702.393193,332.16829 705.110049,329.419302 708.642269,328.066175 C716.55357,325.035507 718.931082,321.624441 717.083795,317.40071 C716.706197,316.537351 716.140158,315.872149 715.010811,314.860027 C714.976237,314.829042 714.155481,314.103047 713.907275,313.87637 C710.211824,310.501456 708.878567,306.702397 710.010245,298.857226 C710.089096,298.310599 710.596147,297.931393 711.142774,298.010245 C711.689401,298.089096 712.068607,298.596147 711.989755,299.142774 C710.952003,306.33682 712.05317,309.474546 715.25599,312.39956 C715.490184,312.613441 716.300572,313.330265 716.345611,313.370629 C717.670908,314.558361 718.396551,315.411127 718.916205,316.59929 C721.314133,322.082035 718.203259,326.545272 709.357731,329.933825 C706.311452,331.100796 703.858762,333.582494 701.19394,337.671123 C700.783527,338.300819 700.37893,338.948275 699.861733,339.796029 C699.942239,339.66407 698.89348,341.390622 698.618171,341.835966 C697.630759,343.433216 696.927711,344.447056 696.208128,345.243759 C695.179552,346.382574 694.152241,347 693,347 C692.622613,347 692.305954,347.002724 691.66698,347.010219 C688.832163,347.043471 687.784359,346.993371 686.636962,346.638431 C684.933889,346.111597 684,344.904369 684,343 C684,340.685582 685.126224,339.17364 687.307375,337.664734 C687.477386,337.547122 688.705516,336.738336 688.990933,336.527214 C689.12627,336.427105 689.241559,336.335217 689.339995,336.248739 C689.56779,336.048615 689.800675,335.696949 690.058695,335.13006 C690.545236,334.061099 693.558772,324.058833 695.053557,319.677128 C697.540087,312.388294 697.540087,305.631882 695.069709,299.366823 Z"/></g></g></svg>